# xmcd
# Track frame offsets:
# 150
# 17306
# 33056
# 47006
# 74869
# 102919
# 127097
#
# Disc length: 1904 seconds
# Revision: 0
# Processed by: cddbd v1.5.2PL0 Copyright (c) Steve Scherf et al.
# Submitted via: VisiTrax 2.10.2.252 - For more info visit www.synapsa.com
#
DISCID=58076e07
DTITLE=Bloomin´Blues - Blues på driv
DYEAR=2007
DGENRE=Blues
TTITLE0=Demo
TTITLE1=Demo
TTITLE2=Demo
TTITLE3=Demo
TTITLE4=Demo
TTITLE5=Demo
TTITLE6=Demo
EXTD=
EXTT0=
EXTT1=
EXTT2=
EXTT3=
EXTT4=
EXTT5=
EXTT6=
PLAYORDER=
